<svg width="2000" height="569" viewBox="0 0 2000 569" fill="none" xmlns="http://www.w3.org/2000/svg">
<g clip-path="url(#clip0_1363_2)">
<path d="M1025.84 154.88C1021.08 150.654 1015.52 147.343 1009.17 144.937C1002.83 142.534 996.001 141.331 988.72 141.331H937.924V170.665H988.72C994.137 170.665 998.71 172.327 1002.45 175.638C1006.17 178.957 1008.05 183.015 1008.05 187.822V290.843H1041.11V187.822C1041.11 181.356 1039.75 175.309 1037.04 169.673C1034.34 164.04 1030.61 159.102 1025.84 154.88Z" fill="black"/>
<path d="M1044.89 171.174H1111.22V141.094H1044.89V171.174Z" fill="black"/>
<path d="M350.589 140.845C350.608 144.68 350.621 149.344 350.621 150.018C350.634 165.485 348.019 204.405 323.503 231.544C311.766 244.545 296.478 253.301 278.067 257.579C276.683 257.906 275.163 258.189 273.477 258.439C269.839 258.909 264.627 259.054 260.948 259.087H256.531V140.845H222.718V290.843H247.368C261.415 290.843 274.02 290.61 286.139 287.796C330.931 277.387 362.025 247.945 376.054 202.663C382.402 182.172 383.842 162.883 383.933 150.311C383.944 149.231 383.938 144.579 383.928 140.845H350.589Z" fill="black"/>
<path d="M92.4185 229.76L165.955 229.735V203.849L88.6163 203.971C64.8251 203.971 46 211.491 46 235.794L46.0346 290.6H190.23V261.267H79.8377L79.7909 241.562C79.7805 235.051 85.436 229.76 92.4185 229.76Z" fill="black"/>
<path d="M46.0244 140.84V168.818C46.0244 185.848 61.1496 199.657 79.8067 199.657V170.178H190.226V170.078V140.84H46.0244Z" fill="black"/>
<path d="M599.254 244.092V141.051H633.363V241.119C633.363 245.924 635.195 249.985 638.862 253.306C642.538 256.614 647.021 258.274 652.333 258.274H750.442V290.6H650.657C643.509 290.6 636.822 289.392 630.592 286.992C624.366 284.585 618.908 281.272 614.234 277.042C609.56 272.815 605.897 267.884 603.237 262.247C600.581 256.608 599.254 250.557 599.254 244.092Z" fill="black"/>
<path d="M1273.69 170.42V141.086H1131.08V290.6H1273.69V261.265H1164.89V226.931H1252.98V201.302H1164.89V170.42H1273.69Z" fill="black"/>
<path d="M567.796 177.056C558.107 159.945 543.279 148.777 522.49 142.917C510.948 139.662 499.547 138.051 488.321 137.995C477.093 138.051 465.699 139.662 454.156 142.917C433.365 148.777 418.542 159.945 408.846 177.056C400.813 191.237 397.934 207.464 400.042 226.659C402.645 250.346 413.579 267.796 433.474 280.021C448.109 289.012 465.556 293.349 488.321 293.683C511.09 293.349 528.539 289.012 543.172 280.021C563.069 267.796 573.999 250.346 576.602 226.659C578.713 207.464 575.836 191.237 567.796 177.056ZM514.638 258.704C506.708 261.271 501.095 262.189 488.321 262.189C475.552 262.189 469.938 261.271 462.006 258.704C444.155 252.913 433.928 239.275 433.214 220.29C433.008 214.677 433.343 209.312 434.221 204.336C436.696 190.36 444.951 180.387 458.75 174.67C467.522 171.04 476.39 169.643 488.321 169.643C500.252 169.643 509.125 171.04 517.896 174.67C531.692 180.387 539.948 190.36 542.422 204.336C543.305 209.312 543.638 214.677 543.429 220.29C542.716 239.275 532.49 252.913 514.638 258.704Z" fill="black"/>
<path d="M882.313 141.34L882.245 223.611C882.214 227.983 881.642 232.443 880.555 236.872C877.492 249.295 868.715 257.641 855.166 261.01C849.917 262.316 844.562 262.874 839.151 262.856C833.747 262.874 828.386 262.316 823.143 261.01C809.588 257.641 800.816 249.295 797.747 236.872C796.654 232.443 796.089 227.983 796.064 223.611L795.996 141.34H762.034L762.102 225.267C762.146 231.599 762.668 236.965 763.693 241.666C769.023 266.217 783.87 281.974 809.078 289.837C818.564 292.793 828.665 294.064 839.151 293.997C849.637 294.064 859.738 292.793 869.23 289.837C894.439 281.974 909.28 266.217 914.616 241.666C915.635 236.965 916.163 231.599 916.194 225.267L916.275 141.34H882.313Z" fill="black"/>
</g>
<path d="M59.779 389.986V384.557H94.222V389.986H59.779ZM67.611 356.166C72.061 356.166 76.155 356.967 79.893 358.569C83.631 360.112 86.8943 362.307 89.683 365.155C92.531 368.003 94.7263 371.355 96.269 375.212C97.8117 379.069 98.583 383.281 98.583 387.85C98.583 392.419 97.8117 396.631 96.269 400.488C94.7263 404.345 92.531 407.697 89.683 410.545C86.8943 413.393 83.631 415.618 79.893 417.22C76.155 418.763 72.061 419.534 67.611 419.534C62.8643 419.534 58.444 418.763 54.35 417.22C50.256 415.677 46.8443 413.393 44.115 410.367L48.209 406.184C50.8197 408.854 53.727 410.782 56.931 411.969C60.135 413.096 63.606 413.66 67.344 413.66C70.8447 413.66 74.0783 413.007 77.045 411.702C80.071 410.397 82.6817 408.587 84.877 406.273C87.1317 403.959 88.882 401.259 90.128 398.174C91.374 395.029 91.997 391.588 91.997 387.85C91.997 384.112 91.374 380.7 90.128 377.615C88.882 374.47 87.1317 371.741 84.877 369.427C82.6817 367.113 80.071 365.303 77.045 363.998C74.0783 362.693 70.8447 362.04 67.344 362.04C63.606 362.04 60.135 362.633 56.931 363.82C53.727 365.007 50.8197 366.905 48.209 369.516L44.115 365.333C46.8443 362.307 50.256 360.023 54.35 358.48C58.444 356.937 62.8643 356.166 67.611 356.166ZM102.893 418.911L103.338 413.482C103.754 413.541 104.139 413.63 104.495 413.749C104.911 413.808 105.267 413.838 105.563 413.838C107.462 413.838 108.975 413.126 110.102 411.702C111.289 410.278 112.179 408.379 112.772 406.006C113.366 403.633 113.781 400.963 114.018 397.996C114.256 394.97 114.463 391.944 114.641 388.918L115.442 372.275H149.707V419H143.388V375.924L144.99 377.793H119.536L121.049 375.835L120.337 389.363C120.159 393.398 119.833 397.254 119.358 400.933C118.943 404.612 118.261 407.845 117.311 410.634C116.421 413.423 115.175 415.618 113.573 417.22C111.971 418.763 109.924 419.534 107.432 419.534C106.72 419.534 105.979 419.475 105.207 419.356C104.495 419.237 103.724 419.089 102.893 418.911ZM187.696 419.445C182.83 419.445 178.558 418.436 174.88 416.419C171.201 414.342 168.323 411.524 166.247 407.964C164.17 404.345 163.132 400.221 163.132 395.593C163.132 390.965 164.111 386.871 166.069 383.311C168.086 379.751 170.815 376.962 174.257 374.945C177.757 372.868 181.673 371.83 186.005 371.83C190.395 371.83 194.282 372.839 197.664 374.856C201.105 376.814 203.805 379.603 205.763 383.222C207.721 386.782 208.7 390.906 208.7 395.593C208.7 395.89 208.67 396.216 208.611 396.572C208.611 396.869 208.611 397.195 208.611 397.551H167.938V392.834H205.229L202.737 394.703C202.737 391.321 201.995 388.325 200.512 385.714C199.088 383.044 197.13 380.967 194.638 379.484C192.146 378.001 189.268 377.259 186.005 377.259C182.801 377.259 179.923 378.001 177.372 379.484C174.82 380.967 172.833 383.044 171.409 385.714C169.985 388.384 169.273 391.44 169.273 394.881V395.86C169.273 399.42 170.044 402.565 171.587 405.294C173.189 407.964 175.384 410.07 178.173 411.613C181.021 413.096 184.254 413.838 187.874 413.838C190.722 413.838 193.362 413.334 195.795 412.325C198.287 411.316 200.423 409.774 202.203 407.697L205.763 411.791C203.686 414.283 201.075 416.182 197.931 417.487C194.845 418.792 191.434 419.445 187.696 419.445ZM256.952 419L237.728 395.86L242.979 392.745L264.428 419H256.952ZM222.687 419V372.275H229.006V419H222.687ZM227.048 398.174V392.745H242.089V398.174H227.048ZM243.513 396.305L237.639 395.415L256.24 372.275H263.093L243.513 396.305ZM282.345 419V376.102L283.947 377.793H264.634V372.275H306.375V377.793H287.062L288.664 376.102V419H282.345ZM339.63 419.445C335.596 419.445 331.947 418.525 328.683 416.686C325.42 414.787 322.809 412.088 320.851 408.587C318.953 405.027 318.003 400.696 318.003 395.593C318.003 390.49 318.953 386.189 320.851 382.688C322.75 379.128 325.331 376.428 328.594 374.589C331.858 372.75 335.536 371.83 339.63 371.83C344.08 371.83 348.056 372.839 351.556 374.856C355.116 376.814 357.905 379.603 359.922 383.222C361.94 386.782 362.948 390.906 362.948 395.593C362.948 400.34 361.94 404.493 359.922 408.053C357.905 411.613 355.116 414.402 351.556 416.419C348.056 418.436 344.08 419.445 339.63 419.445ZM315.511 436.266V372.275H321.563V386.337L320.94 395.682L321.83 405.116V436.266H315.511ZM339.185 413.838C342.508 413.838 345.475 413.096 348.085 411.613C350.696 410.07 352.773 407.934 354.315 405.205C355.858 402.416 356.629 399.212 356.629 395.593C356.629 391.974 355.858 388.799 354.315 386.07C352.773 383.341 350.696 381.205 348.085 379.662C345.475 378.119 342.508 377.348 339.185 377.348C335.863 377.348 332.866 378.119 330.196 379.662C327.586 381.205 325.509 383.341 323.966 386.07C322.483 388.799 321.741 391.974 321.741 395.593C321.741 399.212 322.483 402.416 323.966 405.205C325.509 407.934 327.586 410.07 330.196 411.613C332.866 413.096 335.863 413.838 339.185 413.838ZM395.749 419.445C391.24 419.445 387.175 418.436 383.556 416.419C379.996 414.342 377.178 411.524 375.101 407.964C373.024 404.345 371.986 400.221 371.986 395.593C371.986 390.906 373.024 386.782 375.101 383.222C377.178 379.662 379.996 376.873 383.556 374.856C387.116 372.839 391.18 371.83 395.749 371.83C400.377 371.83 404.471 372.839 408.031 374.856C411.65 376.873 414.469 379.662 416.486 383.222C418.563 386.782 419.601 390.906 419.601 395.593C419.601 400.221 418.563 404.345 416.486 407.964C414.469 411.524 411.65 414.342 408.031 416.419C404.412 418.436 400.318 419.445 395.749 419.445ZM395.749 413.838C399.131 413.838 402.127 413.096 404.738 411.613C407.349 410.07 409.396 407.934 410.879 405.205C412.422 402.416 413.193 399.212 413.193 395.593C413.193 391.914 412.422 388.71 410.879 385.981C409.396 383.252 407.349 381.145 404.738 379.662C402.127 378.119 399.161 377.348 395.838 377.348C392.515 377.348 389.549 378.119 386.938 379.662C384.327 381.145 382.251 383.252 380.708 385.981C379.165 388.71 378.394 391.914 378.394 395.593C378.394 399.212 379.165 402.416 380.708 405.205C382.251 407.934 384.327 410.07 386.938 411.613C389.549 413.096 392.486 413.838 395.749 413.838ZM433.106 419V372.275H439.514L460.696 408.142H458.026L479.564 372.275H485.438V419H479.653V379.484L480.81 380.018L460.696 413.304H457.848L437.556 379.662L438.891 379.395V419H433.106ZM522.644 419.445C518.134 419.445 514.07 418.436 510.451 416.419C506.891 414.342 504.072 411.524 501.996 407.964C499.919 404.345 498.881 400.221 498.881 395.593C498.881 390.906 499.919 386.782 501.996 383.222C504.072 379.662 506.891 376.873 510.451 374.856C514.011 372.839 518.075 371.83 522.644 371.83C527.272 371.83 531.366 372.839 534.926 374.856C538.545 376.873 541.363 379.662 543.381 383.222C545.457 386.782 546.496 390.906 546.496 395.593C546.496 400.221 545.457 404.345 543.381 407.964C541.363 411.524 538.545 414.342 534.926 416.419C531.306 418.436 527.212 419.445 522.644 419.445ZM522.644 413.838C526.026 413.838 529.022 413.096 531.633 411.613C534.243 410.07 536.29 407.934 537.774 405.205C539.316 402.416 540.088 399.212 540.088 395.593C540.088 391.914 539.316 388.71 537.774 385.981C536.29 383.252 534.243 381.145 531.633 379.662C529.022 378.119 526.055 377.348 522.733 377.348C519.41 377.348 516.443 378.119 513.833 379.662C511.222 381.145 509.145 383.252 507.603 385.981C506.06 388.71 505.289 391.914 505.289 395.593C505.289 399.212 506.06 402.416 507.603 405.205C509.145 407.934 511.222 410.07 513.833 411.613C516.443 413.096 519.38 413.838 522.644 413.838ZM581.005 419.534C577.207 419.534 573.825 418.911 570.859 417.665C567.951 416.419 565.459 414.52 563.383 411.969C561.306 409.418 559.734 406.273 558.666 402.535C557.598 398.738 557.064 394.347 557.064 389.363C557.064 384.913 557.479 381.027 558.31 377.704C559.14 374.322 560.297 371.415 561.781 368.982C563.264 366.549 564.985 364.502 566.943 362.841C568.96 361.12 571.126 359.756 573.44 358.747C575.813 357.679 578.246 356.878 580.738 356.344L601.742 351.449L602.81 357.323L583.052 361.773C581.806 362.07 580.293 362.485 578.513 363.019C576.792 363.553 575.012 364.354 573.173 365.422C571.393 366.49 569.731 367.973 568.189 369.872C566.646 371.771 565.4 374.233 564.451 377.259C563.561 380.226 563.116 383.934 563.116 388.384C563.116 389.333 563.145 390.105 563.205 390.698C563.264 391.232 563.323 391.825 563.383 392.478C563.501 393.071 563.59 393.961 563.65 395.148L560.891 392.834C561.543 389.215 562.878 386.07 564.896 383.4C566.913 380.671 569.435 378.564 572.461 377.081C575.546 375.538 578.958 374.767 582.696 374.767C587.027 374.767 590.884 375.716 594.266 377.615C597.648 379.454 600.288 382.035 602.187 385.358C604.145 388.681 605.124 392.537 605.124 396.928C605.124 401.259 604.115 405.146 602.098 408.587C600.14 412.028 597.351 414.728 593.732 416.686C590.112 418.585 585.87 419.534 581.005 419.534ZM581.717 414.283C585.039 414.283 587.976 413.541 590.528 412.058C593.079 410.515 595.067 408.439 596.491 405.828C597.974 403.217 598.716 400.28 598.716 397.017C598.716 393.813 597.974 390.965 596.491 388.473C595.067 385.981 593.079 384.023 590.528 382.599C587.976 381.116 585.01 380.374 581.628 380.374C578.305 380.374 575.368 381.086 572.817 382.51C570.265 383.875 568.248 385.803 566.765 388.295C565.341 390.787 564.629 393.665 564.629 396.928C564.629 400.191 565.341 403.128 566.765 405.739C568.248 408.35 570.265 410.426 572.817 411.969C575.427 413.512 578.394 414.283 581.717 414.283ZM618.668 419V372.275H624.987V409.388L656.226 372.275H661.833V419H655.514V381.798L624.364 419H618.668ZM671.398 418.911L671.843 413.482C672.258 413.541 672.644 413.63 673 413.749C673.415 413.808 673.771 413.838 674.068 413.838C675.967 413.838 677.48 413.126 678.607 411.702C679.794 410.278 680.684 408.379 681.277 406.006C681.87 403.633 682.286 400.963 682.523 397.996C682.76 394.97 682.968 391.944 683.146 388.918L683.947 372.275H718.212V419H711.893V375.924L713.495 377.793H688.041L689.554 375.835L688.842 389.363C688.664 393.398 688.338 397.254 687.863 400.933C687.448 404.612 686.765 407.845 685.816 410.634C684.926 413.423 683.68 415.618 682.078 417.22C680.476 418.763 678.429 419.534 675.937 419.534C675.225 419.534 674.483 419.475 673.712 419.356C673 419.237 672.229 419.089 671.398 418.911ZM756.29 388.74C762.164 388.799 766.614 390.105 769.64 392.656C772.725 395.207 774.268 398.886 774.268 403.692C774.268 408.676 772.606 412.503 769.284 415.173C766.02 417.843 761.274 419.148 755.044 419.089L736.176 419V372.275H742.495V388.562L756.29 388.74ZM754.688 414.283C759.019 414.342 762.282 413.482 764.478 411.702C766.732 409.863 767.86 407.193 767.86 403.692C767.86 400.191 766.762 397.64 764.567 396.038C762.371 394.377 759.078 393.516 754.688 393.457L742.495 393.279V414.105L754.688 414.283ZM786.325 419V372.275H792.644V392.923H822.103V372.275H828.422V419H822.103V398.352H792.644V419H786.325ZM891.951 419V372.275H898.27V419H891.951ZM866.052 388.74C871.926 388.799 876.405 390.105 879.491 392.656C882.576 395.207 884.119 398.886 884.119 403.692C884.119 408.676 882.457 412.503 879.135 415.173C875.812 417.843 871.065 419.148 864.895 419.089L846.383 419V372.275H852.702V388.562L866.052 388.74ZM864.45 414.283C868.84 414.342 872.133 413.482 874.329 411.702C876.583 409.863 877.711 407.193 877.711 403.692C877.711 400.191 876.613 397.64 874.418 396.038C872.222 394.377 868.9 393.516 864.45 393.457L852.702 393.279V414.105L864.45 414.283ZM916.261 419V372.275H922.58V409.388L953.819 372.275H959.426V419H953.107V381.798L921.957 419H916.261ZM937.443 365.511C933.527 365.511 930.353 364.532 927.92 362.574C925.547 360.557 924.301 357.679 924.182 353.941H928.721C928.781 356.314 929.611 358.183 931.213 359.548C932.815 360.913 934.892 361.595 937.443 361.595C939.995 361.595 942.071 360.913 943.673 359.548C945.335 358.183 946.195 356.314 946.254 353.941H950.793C950.734 357.679 949.488 360.557 947.055 362.574C944.623 364.532 941.419 365.511 937.443 365.511ZM1021.83 419.534C1018.04 419.534 1014.65 418.911 1011.69 417.665C1008.78 416.419 1006.29 414.52 1004.21 411.969C1002.13 409.418 1000.56 406.273 999.494 402.535C998.426 398.738 997.892 394.347 997.892 389.363C997.892 384.913 998.307 381.027 999.138 377.704C999.969 374.322 1001.13 371.415 1002.61 368.982C1004.09 366.549 1005.81 364.502 1007.77 362.841C1009.79 361.12 1011.95 359.756 1014.27 358.747C1016.64 357.679 1019.07 356.878 1021.57 356.344L1042.57 351.449L1043.64 357.323L1023.88 361.773C1022.63 362.07 1021.12 362.485 1019.34 363.019C1017.62 363.553 1015.84 364.354 1014 365.422C1012.22 366.49 1010.56 367.973 1009.02 369.872C1007.47 371.771 1006.23 374.233 1005.28 377.259C1004.39 380.226 1003.94 383.934 1003.94 388.384C1003.94 389.333 1003.97 390.105 1004.03 390.698C1004.09 391.232 1004.15 391.825 1004.21 392.478C1004.33 393.071 1004.42 393.961 1004.48 395.148L1001.72 392.834C1002.37 389.215 1003.71 386.07 1005.72 383.4C1007.74 380.671 1010.26 378.564 1013.29 377.081C1016.37 375.538 1019.79 374.767 1023.52 374.767C1027.86 374.767 1031.71 375.716 1035.09 377.615C1038.48 379.454 1041.12 382.035 1043.01 385.358C1044.97 388.681 1045.95 392.537 1045.95 396.928C1045.95 401.259 1044.94 405.146 1042.93 408.587C1040.97 412.028 1038.18 414.728 1034.56 416.686C1030.94 418.585 1026.7 419.534 1021.83 419.534ZM1022.54 414.283C1025.87 414.283 1028.8 413.541 1031.36 412.058C1033.91 410.515 1035.89 408.439 1037.32 405.828C1038.8 403.217 1039.54 400.28 1039.54 397.017C1039.54 393.813 1038.8 390.965 1037.32 388.473C1035.89 385.981 1033.91 384.023 1031.36 382.599C1028.8 381.116 1025.84 380.374 1022.46 380.374C1019.13 380.374 1016.2 381.086 1013.64 382.51C1011.09 383.875 1009.08 385.803 1007.59 388.295C1006.17 390.787 1005.46 393.665 1005.46 396.928C1005.46 400.191 1006.17 403.128 1007.59 405.739C1009.08 408.35 1011.09 410.426 1013.64 411.969C1016.26 413.512 1019.22 414.283 1022.54 414.283ZM1083.61 419.445C1079.58 419.445 1075.93 418.525 1072.67 416.686C1069.4 414.787 1066.79 412.088 1064.84 408.587C1062.94 405.027 1061.99 400.696 1061.99 395.593C1061.99 390.49 1062.94 386.189 1064.84 382.688C1066.73 379.128 1069.32 376.428 1072.58 374.589C1075.84 372.75 1079.52 371.83 1083.61 371.83C1088.06 371.83 1092.04 372.839 1095.54 374.856C1099.1 376.814 1101.89 379.603 1103.91 383.222C1105.92 386.782 1106.93 390.906 1106.93 395.593C1106.93 400.34 1105.92 404.493 1103.91 408.053C1101.89 411.613 1099.1 414.402 1095.54 416.419C1092.04 418.436 1088.06 419.445 1083.61 419.445ZM1059.5 436.266V372.275H1065.55V386.337L1064.92 395.682L1065.81 405.116V436.266H1059.5ZM1083.17 413.838C1086.49 413.838 1089.46 413.096 1092.07 411.613C1094.68 410.07 1096.76 407.934 1098.3 405.205C1099.84 402.416 1100.61 399.212 1100.61 395.593C1100.61 391.974 1099.84 388.799 1098.3 386.07C1096.76 383.341 1094.68 381.205 1092.07 379.662C1089.46 378.119 1086.49 377.348 1083.17 377.348C1079.85 377.348 1076.85 378.119 1074.18 379.662C1071.57 381.205 1069.49 383.341 1067.95 386.07C1066.47 388.799 1065.73 391.974 1065.73 395.593C1065.73 399.212 1066.47 402.416 1067.95 405.205C1069.49 407.934 1071.57 410.07 1074.18 411.613C1076.85 413.096 1079.85 413.838 1083.17 413.838ZM1140.53 419.445C1135.67 419.445 1131.4 418.436 1127.72 416.419C1124.04 414.342 1121.16 411.524 1119.09 407.964C1117.01 404.345 1115.97 400.221 1115.97 395.593C1115.97 390.965 1116.95 386.871 1118.91 383.311C1120.92 379.751 1123.65 376.962 1127.1 374.945C1130.6 372.868 1134.51 371.83 1138.84 371.83C1143.23 371.83 1147.12 372.839 1150.5 374.856C1153.94 376.814 1156.64 379.603 1158.6 383.222C1160.56 386.782 1161.54 390.906 1161.54 395.593C1161.54 395.89 1161.51 396.216 1161.45 396.572C1161.45 396.869 1161.45 397.195 1161.45 397.551H1120.78V392.834H1158.07L1155.58 394.703C1155.58 391.321 1154.83 388.325 1153.35 385.714C1151.93 383.044 1149.97 380.967 1147.48 379.484C1144.98 378.001 1142.11 377.259 1138.84 377.259C1135.64 377.259 1132.76 378.001 1130.21 379.484C1127.66 380.967 1125.67 383.044 1124.25 385.714C1122.82 388.384 1122.11 391.44 1122.11 394.881V395.86C1122.11 399.42 1122.88 402.565 1124.43 405.294C1126.03 407.964 1128.22 410.07 1131.01 411.613C1133.86 413.096 1137.09 413.838 1140.71 413.838C1143.56 413.838 1146.2 413.334 1148.63 412.325C1151.13 411.316 1153.26 409.774 1155.04 407.697L1158.6 411.791C1156.52 414.283 1153.91 416.182 1150.77 417.487C1147.68 418.792 1144.27 419.445 1140.53 419.445ZM1175.53 419V372.275H1181.85V392.923H1211.3V372.275H1217.62V419H1211.3V398.352H1181.85V419H1175.53ZM1267.62 415.974V377.793H1245.11L1244.57 388.206C1244.45 391.351 1244.25 394.436 1243.95 397.462C1243.71 400.488 1243.27 403.277 1242.61 405.828C1242.02 408.32 1241.16 410.367 1240.03 411.969C1238.91 413.512 1237.45 414.402 1235.67 414.639L1229.35 413.482C1231.19 413.541 1232.71 412.889 1233.89 411.524C1235.08 410.1 1236 408.172 1236.65 405.739C1237.3 403.306 1237.78 400.547 1238.08 397.462C1238.37 394.317 1238.61 391.113 1238.79 387.85L1239.41 372.275H1273.94V415.974H1267.62ZM1227.4 430.303V413.482H1281.24V430.303H1275.28V419H1233.36V430.303H1227.4Z" fill="black"/>
<path d="M1340.49 423V143.7H1364.83L1557.54 386.292H1544.77V143.7H1573.9V423H1549.56L1357.24 180.408H1370.01V423H1340.49ZM1621.38 323.25V303.699H1743.48V323.25H1621.38ZM1682.43 268.986C1669.13 268.986 1657.29 266.326 1646.92 261.006C1636.54 255.42 1628.3 247.839 1622.18 238.263C1616.33 228.687 1613.4 217.648 1613.4 205.146C1613.4 192.91 1616.33 182.004 1622.18 172.428C1628.3 162.852 1636.54 155.404 1646.92 150.084C1657.29 144.498 1669.13 141.705 1682.43 141.705C1695.73 141.705 1707.57 144.498 1717.94 150.084C1728.31 155.404 1736.43 162.852 1742.28 172.428C1748.4 182.004 1751.46 192.91 1751.46 205.146C1751.46 217.648 1748.4 228.687 1742.28 238.263C1736.43 247.839 1728.31 255.42 1717.94 261.006C1707.57 266.326 1695.73 268.986 1682.43 268.986ZM1682.43 251.031C1696.79 251.031 1708.36 246.775 1717.14 238.263C1726.19 229.751 1730.71 218.712 1730.71 205.146C1730.71 191.314 1726.19 180.275 1717.14 172.029C1708.36 163.517 1696.79 159.261 1682.43 159.261C1668.6 159.261 1657.03 163.517 1647.72 172.029C1638.67 180.541 1634.15 191.58 1634.15 205.146C1634.15 218.712 1638.67 229.751 1647.72 238.263C1657.03 246.775 1668.6 251.031 1682.43 251.031ZM1854.6 423V155.67L1867.37 169.236H1788.77V143.7H1883.33V423H1854.6Z" fill="black"/>
<path d="M1988.52 151.361L1965.19 164.543V161.839L1988.52 175.021L1984.63 182.119L1961.65 168.768L1963.5 167.923V193.78H1955.73L1955.9 167.923L1957.59 168.768L1934.77 182.119L1930.72 175.021L1954.21 161.839V164.543L1930.72 151.361L1934.77 144.263L1957.59 157.614L1955.9 158.459L1955.73 132.602H1963.5V158.459L1961.65 157.614L1984.63 144.263L1988.52 151.361Z" fill="black"/>
<defs>
<clipPath id="clip0_1363_2">
<rect width="1230" height="156" fill="white" transform="translate(46 138)"/>
</clipPath>
</defs>
</svg>
