<?xml version="1.0" encoding="UTF-8"?> <!-- Generator: Adobe Illustrator 25.0.1, SVG Export Plug-In . SVG Version: 6.00 Build 0) --> <svg xmlns="http://www.w3.org/2000/svg" xmlns:xlink="http://www.w3.org/1999/xlink" id="Слой_1" x="0px" y="0px" viewBox="0 0 24 24" style="enable-background:new 0 0 24 24;" xml:space="preserve"> <style type="text/css"> .st0{fill:#6AD3ED;} </style> <path class="st0" d="M13.6,3.3l-1.4,7.4l5,0l-6.8,10.1l1.4-8.2l-5,0L13.6,3.3z M13.6,2C13.6,2,13.6,2,13.6,2C13.5,2,13.5,2,13.6,2 c-0.2,0-0.3,0-0.4,0.1c-0.1,0-0.2,0.1-0.3,0.1c-0.1,0.1-0.2,0.1-0.3,0.2c0,0,0,0,0,0c0,0,0,0,0,0l-6.9,9.3c-0.3,0.4-0.3,0.9-0.1,1.3 c0,0.1,0.1,0.2,0.1,0.2c0.1,0.1,0.1,0.1,0.2,0.2c0.1,0.1,0.2,0.1,0.2,0.1c0.1,0,0.2,0.1,0.3,0.1c0.1,0,0.2,0,0.3,0l3.6,0l-1.1,6.7 c-0.1,0.3,0,0.6,0.1,0.8c0.1,0.3,0.3,0.5,0.6,0.6c0.1,0,0.2,0.1,0.2,0.1c0.1,0,0.2,0,0.3,0c0.4,0,0.7-0.2,0.9-0.5l6.9-10.1 c0.3-0.4,0.3-0.9,0.1-1.3c-0.2-0.5-0.6-0.7-1.1-0.7h-3.6l1.1-5.9c0-0.1,0-0.1,0-0.1c0-0.1,0-0.1,0-0.2c0-0.1,0-0.2-0.1-0.3 c0-0.1-0.1-0.2-0.1-0.3c-0.1-0.1-0.1-0.2-0.2-0.3c-0.1-0.1-0.1-0.1-0.2-0.2c-0.1-0.1-0.2-0.1-0.3-0.1C13.9,2,13.8,2,13.6,2 C13.6,2,13.6,2,13.6,2C13.6,2,13.6,2,13.6,2z"></path> </svg> 