<svg xmlns="http://www.w3.org/2000/svg" aria-hidden="true" focusable="false">
  <symbol id="ui-banknote" viewBox="0 0 24 24">
    <rect x="2" y="6" width="20" height="12" rx="2"/>
    <circle cx="12" cy="12" r="2.5"/>
    <path d="M6 12h.01M18 12h.01"/>
  </symbol>
  <symbol id="ui-shield-check" viewBox="0 0 24 24">
    <path d="M12 22s8-4 8-10V5l-8-3-8 3v7c0 6 8 10 8 10z"/>
    <path d="m9 12 2 2 4-4"/>
  </symbol>
  <symbol id="ui-wrench" viewBox="0 0 24 24">
    <path d="M14.7 6.3a1 1 0 0 0 0 1.4l1.6 1.6a1 1 0 0 0 1.4 0l3.77-3.77a6 6 0 0 1-7.94 7.94l-6.91 6.91a2.12 2.12 0 0 1-3-3l6.91-6.91a6 6 0 0 1 7.94-7.94l-3.76 3.76z"/>
  </symbol>
  <symbol id="ui-repeat" viewBox="0 0 24 24">
    <path d="m17 2 4 4-4 4"/>
    <path d="M3 11v-1a4 4 0 0 1 4-4h14"/>
    <path d="m7 22-4-4 4-4"/>
    <path d="M21 13v1a4 4 0 0 1-4 4H3"/>
  </symbol>
  <symbol id="ui-fuel" viewBox="0 0 24 24">
    <line x1="3" y1="22" x2="15" y2="22"/>
    <line x1="4" y1="9" x2="14" y2="9"/>
    <path d="M14 9V5a2 2 0 0 0-4 0v4"/>
    <path d="M6 9v13"/>
    <path d="M6 9H4a2 2 0 0 0-2 2v2a2 2 0 0 0 2 2h2"/>
  </symbol>
  <symbol id="ui-leaf" viewBox="0 0 24 24">
    <path d="M11 20A7 7 0 0 1 9.8 6.2C9.3 4.2 10 2 12 2c3 0 5 2 7 5 2 4 2 8-1 11a7 7 0 0 1-7 2z"/>
    <path d="M12 6c-1.5 3-2 6-1 10"/>
  </symbol>
  <symbol id="ui-zap" viewBox="0 0 24 24">
    <path d="M13 2 3 14h9l-1 8 10-12h-9l1-8z"/>
  </symbol>
  <symbol id="ui-battery" viewBox="0 0 24 24">
    <rect x="2" y="7" width="18" height="10" rx="2"/>
    <path d="M22 11v2"/>
    <path d="M7 12h4"/>
  </symbol>
  <symbol id="ui-coins" viewBox="0 0 24 24">
    <circle cx="8" cy="8" r="6"/>
    <path d="M18.09 10.37A6 6 0 1 1 12 20.09"/>
    <path d="M7 6h2v4"/>
    <path d="M9 8H7"/>
  </symbol>
  <symbol id="ui-car" viewBox="0 0 24 24">
    <path d="M19 17h2c.6 0 1-.4 1-1v-3c0-.9-.7-1.7-1.5-1.9C18.7 10.6 16 10 16 10s-1.3-1.4-2.2-2.3c-.5-.4-1.1-.7-1.8-.7H5c-.6 0-1.1.4-1.4.9l-1.4 2.8C1.4 11.4 1 12.2 1 13v3c0 .6.4 1 1 1h2"/>
    <circle cx="7" cy="17" r="2"/>
    <path d="M9 17h6"/>
    <circle cx="17" cy="17" r="2"/>
  </symbol>
  <symbol id="ui-map-pin" viewBox="0 0 24 24">
    <path d="M20 10c0 6-8 12-8 12S4 16 4 10a8 8 0 1 1 16 0z"/>
    <circle cx="12" cy="10" r="3"/>
  </symbol>
  <symbol id="ui-phone" viewBox="0 0 24 24">
    <path d="M22 16.92v3a2 2 0 0 1-2.18 2 19.79 19.79 0 0 1-8.63-3.07 19.5 19.5 0 0 1-6-6 19.79 19.79 0 0 1-3.07-8.67A2 2 0 0 1 4.11 2h3a2 2 0 0 1 2 1.72 12.84 12.84 0 0 0 .7 2.81 2 2 0 0 1-.45 2.11L8.09 9.91a16 16 0 0 0 6 6l1.27-1.27a2 2 0 0 1 2.11-.45 12.84 12.84 0 0 0 2.81.7A2 2 0 0 1 22 16.92z"/>
  </symbol>
  <symbol id="ui-clock" viewBox="0 0 24 24">
    <circle cx="12" cy="12" r="10"/>
    <polyline points="12 6 12 12 16 14"/>
  </symbol>
  <symbol id="ui-message" viewBox="0 0 24 24">
    <path d="M21 11.5a8.38 8.38 0 0 1-.9 3.8 8.5 8.5 0 0 1-7.6 4.7 8.38 8.38 0 0 1-3.8-.9L3 21l1.9-5.7a8.38 8.38 0 0 1-.9-3.8 8.5 8.5 0 0 1 4.7-7.6 8.38 8.38 0 0 1 3.8-.9h.5a8.48 8.48 0 0 1 8 8v.5z"/>
    <path d="M8 12h.01M12 12h.01M16 12h.01"/>
  </symbol>
  <symbol id="ui-messages" viewBox="0 0 24 24">
    <path d="M21 15a2 2 0 0 1-2 2H7l-4 4V5a2 2 0 0 1 2-2h14a2 2 0 0 1 2 2z"/>
    <path d="M8 10h.01M12 10h.01M16 10h.01"/>
  </symbol>
  <symbol id="ui-x" viewBox="0 0 24 24">
    <line x1="18" y1="6" x2="6" y2="18"/>
    <line x1="6" y1="6" x2="18" y2="18"/>
  </symbol>
  <symbol id="ui-chevron-left" viewBox="0 0 24 24">
    <polyline points="15 18 9 12 15 6"/>
  </symbol>
  <symbol id="ui-vk" viewBox="0 0 24 24">
    <path d="M15.07 2H8.93C3.33 2 2 3.33 2 8.93v6.14C2 20.67 3.33 22 8.93 22h6.14c5.6 0 6.93-1.33 6.93-6.93V8.93C22 3.33 20.67 2 15.07 2zm3.08 14.27h-1.46c-.55 0-.72-.44-1.71-1.42-.86-.82-1.24-.93-1.45-.93-.3 0-.38.09-.38.5v1.3c0 .36-.12.58-1.08.58-1.6 0-3.38-.97-4.63-2.78-1.88-2.58-2.4-4.52-2.4-4.65 0-.2.09-.39.5-.39h1.46c.37 0 .51.17.65.55.71 2.05 1.9 3.84 2.39 3.84.18 0 .27-.08.27-.53V9.38c-.06-.95-.55-1.03-.55-1.37 0-.17.14-.33.36-.33h2.3c.33 0 .45.17.45.55v2.97c0 .33.15.45.24.45.18 0 .33-.11.66-.44 1.02-1.14 1.75-2.9 1.75-2.9.1-.2.26-.39.63-.39h1.46c.44 0 .54.22.44.55-.2.93-2.17 3.64-2.17 3.64-.17.27-.23.39 0 .7.17.23.74.72 1.12 1.16.7.78 1.24 1.43 1.38 1.88.14.46-.08.69-.54.69z"/>
  </symbol>
</svg>
